Coordinates
version=1
nRows=24
nColumns=33
inDegrees=yes

Units are S.I. units (second, meters, Newtons, ...)
Angles are in degrees.

endheader
time	ground_thorax_rot_x	ground_thorax_rot_y	ground_thorax_rot_z	ground_thorax_tx	ground_thorax_ty	ground_thorax_tz	clav_prot_r	clav_elev_r	scapula_abduction_r	scapula_elevation_r	scapula_upward_rot_r	scapula_winging_r	shoulder_elv_r	plane_of_elev_r	axial_rot_r	elbow_flexion_r	pro_sup_r	wrist_flex_r	wrist_dev_r	clav_prot_l	clav_elev_l	scapula_abduction_l	scapula_elevation_l	scapula_upward_rot_l	scapula_winging_l	shoulder_elv_l	plane_of_elev_l	axial_rot_l	elbow_flexion_l	pro_sup_l	wrist_flex_l	wrist_dev_l	
2.0800	2.156937	6.643651	-3.082267	-0.152369	1.005322	0.012802	-18.723217	-12.245707	-24.111949	-7.769250	7.819069	4.144769	53.384866	-38.511444	37.621029	81.763045	4.611895	0.613323	14.701382	-0.578884	-3.230220	-2.466861	-3.794007	-2.069289	0.620943	46.608790	-39.943446	-19.490296	85.314426	2.375611	7.169027	-1.304736	
2.0900	2.177093	6.729124	-3.066863	-0.152451	1.005283	0.012857	-18.600131	-12.452455	-23.956631	-7.903587	7.668996	4.284707	52.881225	-37.652339	36.867254	80.681294	4.170423	-0.287690	15.389944	-0.584232	-3.445906	-2.415566	-3.678034	-2.269873	0.527785	46.746347	-39.112634	-19.211731	84.923575	1.981900	7.810543	-0.473534	
2.1000	2.193221	6.814078	-3.058162	-0.152529	1.005223	0.012905	-18.471554	-12.657985	-23.800413	-8.031995	7.505081	4.427251	52.372310	-36.738628	36.113693	79.504362	3.727251	-1.196204	16.096660	-0.589516	-3.666490	-2.354862	-3.567343	-2.494776	0.426540	46.892414	-38.243747	-18.905390	84.498329	1.600993	8.471425	0.378795	
2.1100	2.210301	6.899213	-3.042946	-0.152612	1.005159	0.012944	-18.336489	-12.868967	-23.635702	-8.163337	7.335500	4.573527	51.893377	-35.795588	35.412094	78.235335	3.319328	-2.053072	16.778849	-0.588168	-3.893104	-2.300651	-3.457877	-2.736309	0.323175	47.035077	-37.355015	-18.586256	84.018470	1.265997	9.118000	1.205377	
2.1200	2.222743	6.986965	-3.024044	-0.152700	1.005069	0.012977	-18.194252	-13.074314	-23.468197	-8.284279	7.151407	4.719870	51.420378	-34.809134	34.729341	76.869139	2.922889	-2.892306	17.471766	-0.580282	-4.115004	-2.249049	-3.360757	-2.997719	0.218374	47.184293	-36.429029	-18.257088	83.490569	0.952748	9.785465	2.038070	
2.1300	2.234266	7.077933	-2.994517	-0.152798	1.004960	0.012999	-18.045208	-13.275334	-23.295490	-8.397457	6.957228	4.865450	50.972015	-33.789914	34.092814	75.404266	2.554626	-3.676270	18.156927	-0.562378	-4.332061	-2.206077	-3.277089	-3.281224	0.114153	47.336346	-35.467202	-17.924522	82.902295	0.673870	10.463860	2.858130	
2.1400	2.242742	7.171013	-2.967919	-0.152892	1.004843	0.013010	-17.892076	-13.484581	-23.119726	-8.515560	6.754664	5.017380	50.537194	-32.746301	33.485320	73.840802	2.211799	-4.412343	18.830264	-0.537548	-4.551493	-2.169837	-3.197569	-3.580256	0.008631	47.490719	-34.471220	-17.577502	82.256954	0.418439	11.146183	3.666587	
2.1500	2.249501	7.267908	-2.936672	-0.152988	1.004702	0.013008	-17.734307	-13.685336	-22.942858	-8.622224	6.542354	5.166227	50.112997	-31.664514	32.908653	72.170710	1.882170	-5.094774	19.511714	-0.503488	-4.764907	-2.137246	-3.136387	-3.910576	-0.098546	47.656286	-33.421712	-17.222376	81.548855	0.177708	11.854993	4.480136	
2.1600	2.254990	7.365820	-2.913395	-0.153068	1.004579	0.012992	-17.573273	-13.909116	-22.756002	-8.751730	6.333036	5.327297	49.707418	-30.585774	32.373540	70.404919	1.589903	-5.705717	20.152842	-0.461541	-4.992232	-2.117927	-3.066408	-4.250307	-0.207033	47.821431	-32.351041	-16.852676	80.774092	-0.038902	12.535708	5.259826	
2.1700	2.256872	7.467491	-2.887737	-0.153145	1.004445	0.012964	-17.407344	-14.129089	-22.562103	-8.877231	6.122712	5.486049	49.303232	-29.485255	31.868671	68.530285	1.310273	-6.250650	20.789633	-0.408145	-5.216573	-2.109032	-3.010209	-4.616624	-0.315187	47.998579	-31.233340	-16.477844	79.927584	-0.246196	13.221518	6.030772	
2.1800	2.257296	7.569484	-2.875000	-0.153195	1.004349	0.012924	-17.236426	-14.383072	-22.346848	-9.040366	5.928237	5.660554	48.913226	-28.415549	31.407442	66.566068	1.075765	-6.714570	21.360547	-0.344437	-5.461566	-2.125123	-2.932904	-4.977057	-0.420879	48.165750	-30.112237	-16.088705	79.004564	-0.426871	13.843134	6.742274	
2.1900	2.252882	7.676484	-2.857883	-0.153248	1.004237	0.012874	-17.053273	-14.623737	-22.108885	-9.193376	5.741849	5.825522	48.511203	-27.335242	30.968703	64.499224	0.843759	-7.124241	21.929402	-0.263489	-5.698020	-2.164115	-2.871271	-5.355947	-0.519930	48.343217	-28.949059	-15.707031	78.003999	-0.604519	14.462823	7.443353	
2.2000	2.248414	7.785013	-2.848754	-0.153277	1.004163	0.012816	-16.858282	-14.889464	-21.834506	-9.378580	5.580752	5.999331	48.115597	-26.302192	30.568088	62.355154	0.652339	-7.462937	22.427653	-0.167681	-5.952019	-2.238341	-2.788402	-5.721471	-0.611553	48.505487	-27.790212	-15.322479	76.919576	-0.755677	15.014568	8.083813	
2.2100	2.243490	7.901836	-2.823943	-0.153301	1.004094	0.012750	-16.646924	-15.146587	-21.524859	-9.561231	5.437230	6.164259	47.717491	-25.301625	30.199559	60.136998	0.480652	-7.748580	22.892786	-0.051274	-6.204797	-2.349720	-2.706576	-6.085872	-0.691685	48.663334	-26.622379	-14.968212	75.748962	-0.887001	15.546043	8.693805	
2.2200	2.236022	8.022679	-2.798356	-0.153307	1.004037	0.012675	-16.422831	-15.401253	-21.178768	-9.751109	5.322595	6.321072	47.303065	-24.331650	29.851316	57.840685	0.336810	-7.954511	23.303955	0.083186	-6.455562	-2.496304	-2.624799	-6.444591	-0.759509	48.808188	-25.437367	-14.620708	74.485537	-0.988024	16.055867	9.258238	
2.2300	2.227510	8.151923	-2.758542	-0.153309	1.003970	0.012592	-16.184287	-15.632074	-20.800163	-9.925332	5.229531	6.458834	46.875073	-23.380278	29.525737	55.480436	0.213344	-8.093747	23.685228	0.238836	-6.695165	-2.677292	-2.556006	-6.808748	-0.814178	48.951888	-24.225685	-14.307138	73.130315	-1.058563	16.588277	9.800420	
2.2400	2.213724	8.282062	-2.727968	-0.153289	1.003885	0.012501	-15.939192	-15.840034	-20.397972	-10.087620	5.165263	6.576556	46.411367	-22.418908	29.202594	53.045906	0.118786	-8.132749	24.023072	0.409423	-6.919899	-2.876960	-2.509432	-7.192381	-0.860578	49.103488	-22.953535	-13.989390	71.679783	-1.088004	17.179080	10.318387	
2.2500	2.204134	8.415158	-2.703991	-0.153244	1.003807	0.012401	-15.687089	-16.039169	-19.972773	-10.249763	5.124910	6.683999	45.950683	-21.478339	28.906020	50.587905	0.080409	-8.096757	24.298130	0.593663	-7.150469	-3.098433	-2.461726	-7.585420	-0.902678	49.263649	-21.652318	-13.694008	70.141499	-1.058824	17.824142	10.805035	
2.2600	2.190065	8.544873	-2.701827	-0.153173	1.003708	0.012295	-15.434163	-16.216798	-19.535273	-10.400330	5.109908	6.772966	45.463005	-20.517498	28.612758	48.094997	0.101832	-7.949928	24.514482	0.787083	-7.370031	-3.325986	-2.435709	-8.005484	-0.942052	49.447767	-20.279825	-13.394502	68.514043	-0.959597	18.566882	11.255371	
2.2700	2.186113	8.674196	-2.714235	-0.153066	1.003648	0.012179	-15.176668	-16.410795	-19.079352	-10.572644	5.112413	6.867750	45.018886	-19.613095	28.364517	45.654685	0.225921	-7.747668	24.632095	0.988332	-7.616813	-3.576787	-2.377527	-8.407776	-0.979441	49.630592	-18.920528	-13.134275	66.811411	-0.769543	19.325535	11.635363	
2.2800	2.182756	8.796989	-2.744514	-0.152925	1.003608	0.012061	-14.919065	-16.609147	-18.616823	-10.753425	5.126656	6.962319	44.595999	-18.737221	28.139707	43.269508	0.450611	-7.473852	24.658951	1.194245	-7.871154	-3.843078	-2.304488	-8.790373	-1.011374	49.810934	-17.556893	-12.899417	65.032291	-0.488081	20.100547	11.936430	
2.2900	2.190142	8.917758	-2.779107	-0.152747	1.003624	0.011935	-14.659948	-16.831649	-18.147723	-10.958542	5.144085	7.070209	44.243285	-17.946953	27.962233	41.009302	0.810321	-7.165937	24.566465	1.404904	-8.150020	-4.141187	-2.183535	-9.111208	-1.032785	49.953681	-16.251695	-12.725122	63.183275	-0.101208	20.805114	12.120460	
2.3000	2.192368	9.032277	-2.797424	-0.152560	1.003647	0.011813	-14.402194	-17.038790	-17.686320	-11.146949	5.154968	7.169133	43.914933	-17.197759	27.803344	38.858350	1.266846	-6.811469	24.406167	1.622904	-8.414338	-4.463550	-2.058486	-9.389033	-1.037045	50.068866	-14.976215	-12.610285	61.268840	0.367820	21.463621	12.207654	
2.3100	2.194256	9.146543	-2.795218	-0.152357	1.003681	0.011680	-14.153056	-17.230209	-17.246707	-11.317137	5.155265	7.260000	43.622623	-16.501787	27.652259	36.845085	1.865394	-6.405534	24.151220	1.845420	-8.659260	-4.808467	-1.930092	-9.614962	-1.021502	50.133440	-13.729291	-12.553624	59.285653	0.942226	22.035335	12.151564	
